<svg xmlns="http://www.w3.org/2000/svg" height="149.61" width="147" viewBox="0 0 147 149.61197"><path d="m73.597 1.2009c-27.206 0-50.912 15.116-63.312 37.486h126.63c-12.41-22.37-36.12-37.486-63.323-37.486zm-72.492 41.692v22.181h29.788l36.055-22.181h-65.842zm80.843 0 34.183 22.181h29.964v-22.181h-64.147zm-7.3652 0.22202-35.684 21.959h69.526l-33.842-21.959zm-73.471 26.164v5.4259h1.4757l0.69212-1.8152 0.4897-1.5214 1.0839 3.3366h3.4999l-2.8343 2.066 1.0838 3.3297-2.8337-2.0594-2.6575 1.9323-0.019591 12.944 0.019589 35.892h19.034l1.0839-3.3104-2.8403-2.0633h3.4999l1.0839-3.3366 1.0839 3.3366h3.5062l-2.8403 2.0633 1.0774 3.3104h3.8329v-59.531h-28.521zm32.686 0v59.524h12.106v-59.524h-12.106zm16.272 0v59.524h12.909v-59.524h-12.909zm17.081 0v59.524h12.902v-59.524h-12.902zm34.136 0v59.524h12.504v-59.524h-12.504zm16.67 0v59.531h3.6567 5.6284 18.844v-35.741l-2.6314 1.9066 1.0904 3.3366-2.8338-2.0633-2.8403 2.0633 1.0839-3.3366-2.8338-2.0568h3.4999l1.0904-3.3366 1.0774 3.3366h3.2974v-13.085l-2.4616-1.7891-2.8403 2.0568 1.0839-3.33-2.8338-2.0633h3.4999l1.0904-3.3366 1.0774 3.3366h1.3842v-5.4259h-28.129zm-33.745 0.0067v59.524h12.909v-59.524h-12.909zm-83.099 6.8169v3.4608l0.22853-0.99902 0.60072-1.8544-0.82926-0.60724zm144.97 0.14365-0.71823 0.52236 0.71823 2.207v-2.7293zm-123.11 50.524-2.8012 2.0372h5.6024l-2.8012-2.0372zm-21.861 6.2422v15.802h28.521v-15.802h-28.521zm32.686 0v15.802h37.376l0.79008-2.429-2.8338-2.0633h3.4999l1.0839-3.3366 1.0839 3.3366h3.5062l-2.8338 2.0633 0.79008 2.429h37.54v-15.802h-4.8187l0.80314 2.4747h3.5062l-2.8468 2.0568 1.0904 3.3366-2.8338-2.0633-2.8338 2.0633 1.0839-3.3366-2.8338-2.0568h3.5062l0.80315-2.4747h-69.453l0.80311 2.4747h3.5062l-2.8403 2.0568 1.0839 3.3366-2.8338-2.0633-2.8338 2.0633 1.0839-3.3366-2.8338-2.0568h3.5062l0.79659-2.4747h-4.6098zm84.159 0v15.802h28.129v-15.802h-28.129zm-44.243 14.646-1.5997 1.1557h3.2125l-1.6128-1.1557z" fill="#e57200"/><path d="m5.6814 89.579-1.0839 3.3366h-3.5062l2.8403 2.0568-1.0904 3.3366 2.8403-2.0633 2.8338 2.0633-1.0774-3.3366 2.8273-2.0568h-3.4999l-1.0839-3.3366zm6.9279 16.872-1.0904 3.33h-3.5062l2.8468 2.0568-1.0904 3.33 2.8403-2.0568 2.8338 2.0568-1.0839-3.33 2.8403-2.0568h-3.5062l-1.0839-3.33zm122.17 0-1.0774 3.33h-3.5062l2.8338 2.0568-1.0839 3.33 2.8338-2.0568 2.8403 2.0568-1.0904-3.33 2.8468-2.0568h-3.5062l-1.0904-3.33zm-10.362 13.647-1.0839 3.3366h-3.4999l2.8338 2.0633-1.0774 3.3104 2.8273-2.0372 2.8077 2.0372h0.0197l-1.0839-3.3104 2.8468-2.0633h-3.5062l-1.0839-3.3366zm-68.938 18.681-1.0839 3.33h-3.5062l2.8403 2.0633-1.0904 3.33 2.8403-2.0568 2.8338 2.0568-1.0773-3.33 2.8338-2.0633h-3.5062l-1.0839-3.33zm35.925 0-1.0774 3.33h-3.5062l2.8338 2.0633-1.0839 3.33 2.8338-2.0568 2.8338 2.0568-1.0839-3.33 2.8403-2.0633h-3.5062l-1.0839-3.33z" fill="#fff"/></svg>
